<?xml version="1.0" standalone="no"?>
<!DOCTYPE svg PUBLIC "-//W3C//DTD SVG 20010904//EN"
 "http://www.w3.org/TR/2001/REC-SVG-20010904/DTD/svg10.dtd">
<svg version="1.0" xmlns="http://www.w3.org/2000/svg"
 width="16.000000pt" height="16.000000pt" viewBox="0 0 16.000000 16.000000"
 preserveAspectRatio="xMidYMid meet">
<metadata>
Created by potrace 1.11, written by Peter Selinger 2001-2013
</metadata>
<g transform="translate(0.000000,16.000000) scale(0.001382,-0.001382)"
fill="#000000" stroke="none">
<path d="M3063 11568 c-16 -21 -22 -56 -30 -188 -14 -229 -8 -693 11 -861 3
-24 8 -70 11 -103 4 -32 8 -68 10 -80 2 -11 6 -39 10 -61 10 -74 54 -287 79
-385 53 -211 134 -425 241 -635 107 -213 192 -340 428 -635 50 -63 137 -184
205 -285 45 -66 86 -125 92 -132 5 -7 10 -14 10 -17 0 -6 108 -174 248 -385
150 -226 279 -396 389 -510 38 -40 56 -76 83 -163 8 -26 1 -22 -73 35 -304
234 -629 390 -1317 632 -556 195 -820 267 -1120 303 -77 9 -403 8 -474 -1 -88
-12 -195 -36 -225 -50 -23 -11 -26 -18 -27 -67 -4 -223 188 -443 591 -675 264
-152 523 -266 850 -372 60 -19 114 -36 120 -38 5 -1 30 -8 55 -15 62 -18 61
-18 95 -25 17 -3 41 -10 55 -14 25 -9 64 -19 110 -28 13 -2 60 -13 105 -23 44
-10 107 -23 140 -29 33 -6 70 -13 81 -15 66 -13 402 -62 489 -71 173 -18 231
-24 310 -30 127 -10 189 -14 320 -20 215 -10 224 -11 228 -15 5 -7 59 -91 74
-115 6 -11 45 -76 86 -145 42 -69 84 -141 95 -160 10 -19 60 -107 109 -195 49
-88 114 -205 143 -260 105 -199 143 -271 180 -340 21 -38 63 -119 95 -180 32
-60 62 -117 68 -125 36 -50 -75 68 -118 125 -101 135 -143 161 -435 273 -180
69 -525 183 -598 197 -10 2 -17 4 -17 5 0 1 -7 3 -15 5 -8 2 -71 17 -140 35
-125 31 -380 84 -455 95 -22 3 -62 10 -90 15 -76 14 -121 20 -255 35 -25 3
-63 7 -85 10 -211 24 -322 29 -665 29 -286 1 -485 -5 -600 -19 -39 -4 -116
-12 -200 -21 -30 -3 -62 -7 -70 -9 -8 -2 -37 -7 -65 -10 -45 -6 -130 -19 -195
-31 -14 -2 -41 -7 -60 -10 -64 -10 -125 -24 -152 -35 -44 -18 -41 -52 13 -167
101 -218 290 -403 549 -539 153 -81 367 -152 594 -197 195 -40 244 -48 416
-66 52 -6 109 -12 125 -15 197 -26 837 -26 1155 0 25 2 81 6 125 10 44 4 91 8
105 10 14 1 59 6 100 10 41 3 86 8 100 10 14 2 54 6 90 10 36 4 76 8 90 10 28
4 92 13 148 20 141 17 260 33 302 41 14 2 48 7 75 10 28 3 73 9 100 14 28 5
73 12 100 15 28 3 57 8 66 10 16 5 18 3 104 -160 75 -139 245 -447 323 -580
38 -66 89 -154 112 -195 24 -41 52 -86 62 -99 10 -13 17 -26 14 -28 -16 -17
-76 -7 -208 33 -304 91 -538 157 -603 170 -11 2 -40 8 -65 13 -25 6 -61 13
-80 15 -19 3 -57 8 -85 12 -76 10 -224 11 -322 2 -109 -10 -277 -43 -584 -114
-752 -173 -1177 -330 -1543 -569 -133 -87 -356 -271 -356 -293 0 -35 359 -207
493 -237 12 -2 51 -11 87 -19 107 -25 177 -31 350 -31 178 0 265 8 400 35 25
6 56 12 70 14 95 16 325 78 800 216 212 61 396 113 409 116 14 3 28 7 33 10 4
3 17 7 27 9 11 2 81 22 158 44 76 23 216 64 311 92 275 80 424 142 562 235 79
53 154 129 167 168 9 29 9 29 58 -50 139 -226 415 -639 487 -729 4 -5 47 -62
95 -125 48 -63 95 -124 105 -134 41 -44 17 -46 -89 -7 -142 52 -266 74 -423
75 -91 0 -236 -10 -262 -19 -7 -2 -31 -6 -53 -9 -61 -8 -238 -53 -324 -82
-436 -149 -799 -374 -1127 -699 -185 -184 -333 -373 -457 -586 -74 -127 -74
-125 -40 -132 15 -4 60 -13 98 -22 110 -24 163 -30 265 -30 107 0 154 6 225
31 81 27 150 61 355 176 74 42 654 365 710 396 84 47 305 174 340 197 19 12
67 42 105 66 221 139 459 323 684 527 l43 40 61 -76 c34 -42 73 -90 88 -107
14 -16 63 -73 109 -125 86 -99 111 -128 222 -251 110 -123 346 -394 344 -396
0 0 -42 9 -93 22 -50 13 -120 28 -155 33 -64 10 -303 9 -347 -2 -300 -72 -458
-208 -572 -491 -13 -33 -24 -62 -25 -65 0 -3 -4 -12 -7 -20 -27 -64 -140 -432
-150 -487 -24 -125 -6 -218 55 -294 16 -19 67 -53 72 -48 2 2 32 40 67 84 74
95 165 197 324 366 264 281 328 349 344 368 23 27 277 295 312 330 72 72 185
161 203 161 6 0 28 -26 48 -58 44 -68 43 -66 184 -240 228 -281 612 -699 990
-1076 174 -173 352 -341 355 -333 0 1 3 91 6 200 l5 198 -54 62 c-29 34 -62
71 -73 83 -11 11 -81 86 -157 165 -143 151 -275 287 -648 666 -124 126 -264
270 -312 321 l-87 91 11 38 c26 96 104 202 257 353 216 213 459 392 604 444
78 28 70 26 102 26 14 0 34 9 45 20 19 19 19 20 -1 92 -27 98 -58 167 -80 178
-27 15 -61 12 -177 -15 -244 -56 -366 -117 -493 -246 -148 -149 -244 -369
-264 -597 -4 -43 -9 -90 -11 -107 -2 -16 -7 -52 -10 -80 -9 -68 -12 -71 -43
-37 -78 87 -129 143 -180 197 -31 33 -130 141 -221 240 -91 99 -169 185 -175
191 -5 6 -36 39 -67 75 -31 35 -70 79 -87 98 -30 33 -30 35 -11 48 11 8 68 32
126 54 420 155 905 429 1446 815 54 38 186 132 294 209 254 180 295 214 307
248 8 24 5 33 -14 53 -12 13 -39 29 -58 34 -117 31 -383 33 -605 5 -43 -6
-108 -35 -386 -174 -549 -274 -707 -381 -842 -571 -69 -98 -111 -195 -174
-410 -45 -152 -64 -201 -85 -223 -15 -15 -33 -27 -41 -27 -34 0 -516 601 -725
906 -42 61 -42 61 -20 72 12 7 54 21 92 33 130 39 252 110 424 247 81 65 292
244 371 315 14 13 81 72 150 133 732 641 975 970 1112 1509 16 66 31 127 33
135 2 8 10 46 19 83 19 83 21 137 3 137 -14 0 -263 -96 -352 -135 -385 -172
-656 -387 -1161 -920 -233 -246 -296 -341 -417 -630 -14 -33 -53 -118 -87
-190 -82 -173 -85 -178 -118 -265 -55 -140 -75 -225 -86 -367 -2 -28 -7 -57
-11 -63 -10 -16 -343 490 -468 710 -10 19 -54 94 -96 165 -123 206 -303 526
-300 529 2 2 36 21 74 41 187 102 327 218 634 526 207 208 330 336 401 419 30
35 62 70 70 79 82 88 309 416 353 511 4 8 15 29 25 45 10 17 34 57 52 90 18
33 41 72 51 87 11 14 19 29 19 33 0 6 70 118 240 385 84 131 168 296 199 389
40 119 50 189 47 326 -5 168 -32 257 -110 362 -35 48 -39 50 -64 26 -25 -25
-260 -245 -297 -279 -25 -23 -99 -92 -300 -279 -18 -16 -84 -77 -146 -135
-307 -283 -502 -497 -646 -708 -170 -248 -314 -545 -413 -847 -38 -118 -100
-349 -114 -425 -3 -19 -8 -46 -11 -60 -12 -61 -18 -95 -29 -173 -3 -17 -8 -48
-11 -67 -3 -19 -7 -60 -10 -90 -10 -110 -16 -156 -27 -188 l-10 -33 -90 163
c-50 90 -101 181 -113 203 -12 22 -45 83 -74 135 -30 52 -67 120 -84 150 -56
102 -75 134 -212 375 -76 132 -145 252 -154 267 -51 83 -101 171 -99 173 2 1
23 15 48 30 25 15 86 60 135 98 506 396 691 657 790 1117 9 40 97 423 110 476
8 34 55 239 105 455 49 217 94 412 100 434 32 128 67 303 77 387 9 81 10 259
1 323 -19 133 -104 305 -151 305 -28 0 -143 -84 -214 -157 -130 -135 -224
-289 -417 -684 -191 -393 -252 -530 -336 -754 -45 -122 -123 -375 -133 -435
-3 -14 -10 -43 -15 -65 -6 -22 -13 -51 -15 -65 -3 -14 -12 -63 -20 -110 -26
-138 -52 -336 -62 -460 -18 -217 -26 -384 -30 -610 -2 -102 -4 -196 -4 -209
-1 -31 -201 299 -201 331 0 11 -13 64 -29 117 -28 92 -78 272 -86 309 -2 9
-13 58 -24 107 -20 85 -56 253 -65 299 -2 11 -11 59 -21 106 -15 80 -71 396
-80 450 -5 34 -12 76 -35 205 -10 61 -22 126 -25 145 -3 19 -10 58 -15 85 -15
72 -18 88 -24 126 -10 64 -54 274 -86 409 -40 170 -33 144 -74 290 -136 488
-253 710 -599 1140 -292 363 -481 578 -572 650 -66 53 -176 110 -211 110 -12
0 -26 -6 -31 -12z"/>
</g>
</svg>
